<svg id="Layer_1" data-name="Layer 1" xmlns="http://www.w3.org/2000/svg" viewBox="0 0 35 35"><defs><style>.cls-1,.cls-2{fill:none;stroke:#4d4d4d;stroke-miterlimit:10;}.cls-2{stroke-linecap:round;}.cls-3{fill:#4d4d4d;}</style></defs><line class="cls-1" x1="2.64" y1="10.06" x2="33.09" y2="10.06"/><path class="cls-2" d="M25.48,2.45V7.53M10.25,2.45V7.53"/><rect class="cls-1" x="2.64" y="5.62" width="30.45" height="24.74" rx="1.27"/><path class="cls-3" d="M19.13,14.82a.95.95,0,0,1-1.9,0,1,1,0,0,1,1.9,0"/><path class="cls-3" d="M13.81,14.82a1,1,0,1,1-1-1,1,1,0,0,1,1,1"/><path class="cls-3" d="M24.72,14.82a1,1,0,1,1-.95-1,.95.95,0,0,1,.95,1"/><path class="cls-3" d="M30.05,14.82a1,1,0,1,1-1-1,1,1,0,0,1,1,1"/><path class="cls-3" d="M19.26,25a.95.95,0,1,1-1-.95.94.94,0,0,1,1,.95"/><path class="cls-3" d="M14.06,25a1,1,0,1,1-1-.95.95.95,0,0,1,1,.95"/><path class="cls-3" d="M8.35,25A.95.95,0,1,1,7.4,24a.95.95,0,0,1,.95.95"/><circle class="cls-1" cx="18.37" cy="19.9" r="1.59"/><circle class="cls-1" cx="13.05" cy="19.9" r="1.59"/><circle class="cls-1" cx="7.59" cy="19.9" r="1.59"/><path class="cls-3" d="M24.72,19.9a1,1,0,1,1-.95-1,1,1,0,0,1,.95,1"/><path class="cls-3" d="M30.05,19.9a1,1,0,1,1-1-1,1,1,0,0,1,1,1"/></svg>