<svg id="Layer_1" data-name="Layer 1" xmlns="http://www.w3.org/2000/svg" viewBox="0 0 35 35"><defs><style>.cls-1,.cls-2{fill:none;stroke:#4d4d4d;stroke-miterlimit:10;}.cls-2{stroke-linecap:round;}.cls-3{fill:#4d4d4d;}</style></defs><line class="cls-1" x1="2.41" y1="10.11" x2="32.86" y2="10.11"/><path class="cls-2" d="M25.25,2.5V7.57M10,2.5V7.57"/><rect class="cls-1" x="2.41" y="5.67" width="30.45" height="24.74" rx="1.27"/><path class="cls-3" d="M18.91,14.87a1,1,0,1,1-.95-.95.95.95,0,0,1,.95.95"/><path class="cls-3" d="M14.47,14.87a1,1,0,1,1-1-.95.95.95,0,0,1,1,.95"/><path class="cls-3" d="M23.35,14.87a1,1,0,1,1-1-.95.95.95,0,0,1,1,.95"/><path class="cls-3" d="M18.91,19.94A1,1,0,1,1,18,19a1,1,0,0,1,.95,1"/><path class="cls-3" d="M14.47,19.94a1,1,0,1,1-1-1,1,1,0,0,1,1,1"/><path class="cls-3" d="M10,19.94a1,1,0,1,1-1-1,1,1,0,0,1,1,1"/><path class="cls-3" d="M23.35,19.94a1,1,0,1,1-1-1,1,1,0,0,1,1,1"/><path class="cls-3" d="M27.79,14.87a.95.95,0,1,1-.95-.95.95.95,0,0,1,.95.95"/><path class="cls-3" d="M18.91,25a1,1,0,1,1-.95-.95.95.95,0,0,1,.95.95"/><path class="cls-3" d="M14.47,25a1,1,0,1,1-1-.95.95.95,0,0,1,1,.95"/><path class="cls-3" d="M10,25a1,1,0,1,1-1-.95A1,1,0,0,1,10,25"/><path class="cls-3" d="M27.79,19.94a.95.95,0,1,1-.95-1,1,1,0,0,1,.95,1"/></svg>