<svg id="Layer_1" data-name="Layer 1" xmlns="http://www.w3.org/2000/svg" viewBox="0 0 35 35"><defs><style>.cls-1,.cls-2,.cls-4{fill:none;stroke:#4d4d4d;}.cls-1,.cls-4{stroke-linecap:round;}.cls-1{stroke-linejoin:round;}.cls-2,.cls-4{stroke-miterlimit:10;}.cls-3{fill:#4d4d4d;}</style></defs><path class="cls-1" d="M22.46,32.71V30.07H25.1m7.4-2.64a5.28,5.28,0,0,1-9.86,2.64m-.18,2.64V30.07H25.1M32,22.14v2.64H29.33m-7.4,2.65a5.28,5.28,0,0,1,9.86-2.65M32,22.14v2.64H29.33"/><path class="cls-2" d="M32.68,17.7V8.5a1.26,1.26,0,0,0-1.27-1.26H30.14M19.56,30.07H31.41a1.27,1.27,0,0,0,1.27-1.27V17.7M4.76,27.53V28.8A1.27,1.27,0,0,0,6,30.07H19.56m0-2.54H3.5a1.26,1.26,0,0,1-1.27-1.26V6A1.27,1.27,0,0,1,3.5,4.7H28.87A1.27,1.27,0,0,1,30.14,6V17.7m0,0v8.57a1.26,1.26,0,0,1-1.27,1.26H19.56"/><line class="cls-2" x1="2.23" y1="8.5" x2="30.14" y2="8.5"/><path class="cls-3" d="M17.13,12.45a.95.95,0,1,1-1.9,0,.95.95,0,0,1,1.9,0"/><path class="cls-3" d="M12.69,12.45a1,1,0,1,1-1.9,0,.95.95,0,0,1,1.9,0"/><path class="cls-3" d="M21.57,12.45a1,1,0,0,1-1.9,0,.95.95,0,0,1,1.9,0"/><path class="cls-3" d="M17.13,17.53a.95.95,0,1,1-.95-1,.95.95,0,0,1,.95,1"/><path class="cls-3" d="M12.69,17.53a1,1,0,1,1-.95-1,.95.95,0,0,1,.95,1"/><path class="cls-3" d="M8.25,17.53a1,1,0,1,1-1-1,.95.95,0,0,1,1,1"/><path class="cls-3" d="M21.57,17.53a.95.95,0,1,1-.95-1,.95.95,0,0,1,.95,1"/><path class="cls-3" d="M26,12.45a1,1,0,1,1-1-.95,1,1,0,0,1,1,.95"/><path class="cls-3" d="M17.13,22.6a.95.95,0,0,1-1.9,0,1,1,0,0,1,1.9,0"/><path class="cls-3" d="M12.69,22.6a.95.95,0,1,1-1.9,0,1,1,0,0,1,1.9,0"/><path class="cls-3" d="M8.25,22.6a.95.95,0,1,1-1.9,0,1,1,0,1,1,1.9,0"/><path class="cls-3" d="M26,17.53a1,1,0,1,1-1-1,1,1,0,0,1,1,1"/><path class="cls-4" d="M23.8,1.42V6.5M8.57,1.42V6.5"/></svg>