<svg id="Layer_1" data-name="Layer 1" xmlns="http://www.w3.org/2000/svg" viewBox="0 0 35 35"><defs><style>.cls-1,.cls-2,.cls-4{fill:none;stroke:#4d4d4d;}.cls-1,.cls-2{stroke-miterlimit:10;}.cls-2,.cls-4{stroke-linecap:round;}.cls-3{fill:#4d4d4d;}.cls-4{stroke-linejoin:round;}</style></defs><line class="cls-1" x1="2.63" y1="8.61" x2="31.34" y2="8.61"/><path class="cls-2" d="M24.16,1.43V6.22M9.81,1.43V6.22"/><path class="cls-1" d="M19,27.75H3.83a1.2,1.2,0,0,1-1.2-1.2V5.62a1.2,1.2,0,0,1,1.2-1.2H30.14a1.2,1.2,0,0,1,1.2,1.2V17.28"/><path class="cls-3" d="M18.18,13.09a.9.9,0,1,1-.9-.89.9.9,0,0,1,.9.89"/><path class="cls-3" d="M13.16,13.09a.9.9,0,1,1-.9-.89.9.9,0,0,1,.9.89"/><path class="cls-3" d="M23.44,13.09a.9.9,0,1,1-.89-.89.89.89,0,0,1,.89.89"/><path class="cls-3" d="M28.47,13.09a.9.9,0,1,1-.9-.89.9.9,0,0,1,.9.89"/><path class="cls-3" d="M18.3,22.66a.9.9,0,1,1-.9-.89.9.9,0,0,1,.9.89"/><path class="cls-3" d="M13.4,22.66a.9.9,0,1,1-.9-.89.9.9,0,0,1,.9.89"/><path class="cls-3" d="M8,22.66a.9.9,0,1,1-.89-.89.89.89,0,0,1,.89.89"/><circle class="cls-1" cx="22.67" cy="17.88" r="1.5"/><circle class="cls-1" cx="17.46" cy="17.88" r="1.5"/><circle class="cls-1" cx="12.44" cy="17.88" r="1.5"/><circle class="cls-1" cx="7.29" cy="17.88" r="1.5"/><circle class="cls-1" cx="27.75" cy="17.88" r="1.5"/><path class="cls-4" d="M22.62,32.1V29.46h2.64m7.4-2.65a5.28,5.28,0,0,1-9.86,2.65m-.18,2.64V29.46h2.64m6.87-7.93v2.64H29.49m-7.4,2.64A5.28,5.28,0,0,1,32,24.17m.18-2.64v2.64H29.49"/></svg>