<svg id="Layer_1" data-name="Layer 1" xmlns="http://www.w3.org/2000/svg" viewBox="0 0 35 35"><defs><style>.cls-1,.cls-2,.cls-4{fill:none;stroke:#4d4d4d;}.cls-1,.cls-2{stroke-miterlimit:10;}.cls-2,.cls-4{stroke-linecap:round;}.cls-3{fill:#4d4d4d;}.cls-4{stroke-linejoin:round;}</style></defs><line class="cls-1" x1="3" y1="8.91" x2="31.71" y2="8.91"/><path class="cls-2" d="M24.53,1.73V6.52M10.18,1.73V6.52"/><path class="cls-1" d="M19.55,28.05H4.19A1.19,1.19,0,0,1,3,26.85V5.92a1.19,1.19,0,0,1,1.19-1.2H30.51a1.2,1.2,0,0,1,1.2,1.2V17.28"/><path class="cls-3" d="M18.55,13.39a.9.9,0,1,1-.9-.89.9.9,0,0,1,.9.89"/><path class="cls-3" d="M13.53,13.39a.9.9,0,1,1-.9-.89.9.9,0,0,1,.9.89"/><path class="cls-3" d="M23.81,13.39a.9.9,0,1,1-.89-.89.89.89,0,0,1,.89.89"/><path class="cls-3" d="M28.84,13.39a.9.9,0,1,1-.9-.89.9.9,0,0,1,.9.89"/><path class="cls-3" d="M18.67,23a.9.9,0,1,1-.9-.89.9.9,0,0,1,.9.89"/><path class="cls-3" d="M13.76,23a.9.9,0,1,1-.89-.89.89.89,0,0,1,.89.89"/><path class="cls-3" d="M8.38,23a.9.9,0,1,1-.9-.89.9.9,0,0,1,.9.89"/><circle class="cls-1" cx="17.83" cy="18.18" r="1.5"/><circle class="cls-1" cx="12.81" cy="18.18" r="1.5"/><circle class="cls-1" cx="7.66" cy="18.18" r="1.5"/><path class="cls-3" d="M23.81,18.18a.9.9,0,1,1-.89-.9.9.9,0,0,1,.89.9"/><path class="cls-3" d="M28.84,18.18a.9.9,0,0,1-1.8,0,.9.9,0,1,1,1.8,0"/><path class="cls-4" d="M23.54,31.92V29.28h2.64m7.4-2.65a5.28,5.28,0,0,1-9.86,2.65m-.18,2.64V29.28h2.64m6.87-7.93V24H30.41M23,26.63A5.28,5.28,0,0,1,32.87,24m.18-2.64V24H30.41"/></svg>