<svg id="Layer_1" data-name="Layer 1" xmlns="http://www.w3.org/2000/svg" viewBox="0 0 35 35"><defs><style>.cls-1,.cls-2{fill:none;stroke:#4d4d4d;stroke-miterlimit:10;}.cls-2{stroke-linecap:round;}.cls-3{fill:#4d4d4d;}</style></defs><line class="cls-1" x1="2.4" y1="9.75" x2="32.85" y2="9.75"/><path class="cls-2" d="M25.24,2.13V7.21M10,2.13V7.21"/><rect class="cls-1" x="2.4" y="5.31" width="30.45" height="24.74" rx="1.27"/><path class="cls-3" d="M18.89,14.5a1,1,0,1,1-.95-.95,1,1,0,0,1,.95.95"/><path class="cls-3" d="M13.57,14.5a1,1,0,1,1-1-.95,1,1,0,0,1,1,.95"/><path class="cls-3" d="M24.48,14.5a1,1,0,1,1-1-.95,1,1,0,0,1,1,.95"/><path class="cls-3" d="M29.81,14.5a1,1,0,1,1-1-.95,1,1,0,0,1,1,.95"/><path class="cls-3" d="M19,24.65a.95.95,0,1,1-.95-.95,1,1,0,0,1,.95.95"/><path class="cls-3" d="M13.82,24.65a.95.95,0,1,1-1-.95,1,1,0,0,1,1,.95"/><path class="cls-3" d="M8.11,24.65a.95.95,0,1,1-.95-.95,1,1,0,0,1,.95.95"/><circle class="cls-1" cx="23.65" cy="19.58" r="1.59"/><circle class="cls-1" cx="18.13" cy="19.58" r="1.59"/><circle class="cls-1" cx="12.8" cy="19.58" r="1.59"/><circle class="cls-1" cx="7.35" cy="19.58" r="1.59"/><circle class="cls-1" cx="29.04" cy="19.58" r="1.59"/></svg>