<svg id="Layer_1" data-name="Layer 1" xmlns="http://www.w3.org/2000/svg" viewBox="0 0 35 35"><defs><style>.cls-1,.cls-3{fill:none;stroke:#4d4d4d;stroke-miterlimit:10;}.cls-2{fill:#4d4d4d;}.cls-3{stroke-linecap:round;}</style></defs><path class="cls-1" d="M32.49,19.63v-9.2a1.27,1.27,0,0,0-1.27-1.27H30M19.38,32H31.22a1.27,1.27,0,0,0,1.27-1.27V19.63M4.58,29.46v1.27A1.27,1.27,0,0,0,5.85,32H19.38m0-2.54H3.31A1.27,1.27,0,0,1,2,28.19V7.89A1.27,1.27,0,0,1,3.31,6.62H28.68A1.27,1.27,0,0,1,30,7.89V19.63m0,0v8.56a1.27,1.27,0,0,1-1.27,1.27h-9.3"/><line class="cls-1" x1="2.04" y1="10.43" x2="29.95" y2="10.43"/><path class="cls-2" d="M17,14.38a1,1,0,1,1-.95-1,1,1,0,0,1,.95,1"/><path class="cls-2" d="M12.51,14.38a1,1,0,1,1-.95-1,1,1,0,0,1,.95,1"/><path class="cls-2" d="M21.39,14.38a1,1,0,1,1-.95-1,1,1,0,0,1,.95,1"/><path class="cls-2" d="M17,19.45A1,1,0,1,1,16,18.5a1,1,0,0,1,.95.95"/><path class="cls-2" d="M12.51,19.45a1,1,0,1,1-.95-.95,1,1,0,0,1,.95.95"/><path class="cls-2" d="M8.07,19.45a1,1,0,1,1-1-.95,1,1,0,0,1,1,.95"/><path class="cls-2" d="M21.39,19.45a1,1,0,1,1-.95-.95,1,1,0,0,1,.95.95"/><path class="cls-2" d="M25.83,14.38a.95.95,0,1,1-1.9,0,.95.95,0,1,1,1.9,0"/><path class="cls-2" d="M17,24.53a1,1,0,1,1-.95-1,1,1,0,0,1,.95,1"/><path class="cls-2" d="M12.51,24.53a1,1,0,1,1-.95-1,1,1,0,0,1,.95,1"/><path class="cls-2" d="M8.07,24.53a1,1,0,1,1-1-1,1,1,0,0,1,1,1"/><path class="cls-2" d="M25.83,19.45a.95.95,0,1,1-.95-.95,1,1,0,0,1,.95.95"/><path class="cls-3" d="M23.61,3.35V8.42M8.38,3.35V8.42"/></svg>