<svg id="Layer_1" data-name="Layer 1" xmlns="http://www.w3.org/2000/svg" viewBox="0 0 35 35"><defs><style>.cls-1,.cls-3,.cls-4{fill:none;stroke:#4d4d4d;}.cls-1,.cls-4{stroke-linecap:round;}.cls-1{stroke-linejoin:round;}.cls-2{fill:#4d4d4d;}.cls-3,.cls-4{stroke-miterlimit:10;}</style></defs><path class="cls-1" d="M22.46,32.71V30.07H25.1m7.4-2.64a5.28,5.28,0,0,1-9.86,2.64m-.18,2.64V30.07H25.1M32,22.14v2.64H29.33m-7.4,2.65a5.28,5.28,0,0,1,9.86-2.65M32,22.14v2.64H29.33"/><path class="cls-2" d="M32.81,9.16v20.3a1.27,1.27,0,0,1-1.27,1.27H6.17A1.27,1.27,0,0,1,4.9,29.46V28.19H29a1.27,1.27,0,0,0,1.27-1.27v-19h1.26A1.27,1.27,0,0,1,32.81,9.16Z"/><path class="cls-3" d="M32.81,18.36V9.16a1.27,1.27,0,0,0-1.27-1.27H30.28"/><path class="cls-3" d="M19.7,30.73H31.54a1.27,1.27,0,0,0,1.27-1.27V18.36"/><path class="cls-3" d="M4.9,28.19v1.27a1.27,1.27,0,0,0,1.27,1.27H19.7"/><path class="cls-3" d="M19.7,28.19H3.63a1.27,1.27,0,0,1-1.27-1.27V6.62A1.27,1.27,0,0,1,3.63,5.35H29a1.27,1.27,0,0,1,1.27,1.27V18.36"/><path class="cls-3" d="M30.28,18.36v8.56A1.27,1.27,0,0,1,29,28.19H19.7"/><line class="cls-3" x1="2.36" y1="9.16" x2="30.28" y2="9.16"/><path class="cls-4" d="M23.93,2.08V7.15M8.71,2.08V7.15"/><path class="cls-2" d="M17.92,24.44a1,1,0,1,1-1-1,1,1,0,0,1,1,1"/><path class="cls-2" d="M12.72,24.44a1,1,0,1,1-1-1,1,1,0,0,1,1,1"/><path class="cls-2" d="M7,24.44a1,1,0,1,1-1-1,1,1,0,0,1,1,1"/><circle class="cls-3" cx="17.03" cy="19.36" r="1.59"/><circle class="cls-3" cx="11.7" cy="19.36" r="1.59"/><circle class="cls-3" cx="6.25" cy="19.36" r="1.59"/><path class="cls-2" d="M23.37,19.36a.95.95,0,1,1-.95-.95.94.94,0,0,1,.95.95"/><path class="cls-2" d="M28.45,19.36a.95.95,0,1,1-.95-.95.95.95,0,0,1,.95.95"/><circle class="cls-3" cx="11.77" cy="13.65" r="1.59"/><circle class="cls-3" cx="16.97" cy="13.65" r="1.59"/><ellipse class="cls-3" cx="22.23" cy="13.65" rx="1.36" ry="1.59"/><ellipse class="cls-3" cx="27.53" cy="13.65" rx="1.36" ry="1.59"/></svg>