<svg id="Layer_1" data-name="Layer 1" xmlns="http://www.w3.org/2000/svg" viewBox="0 0 35 35"><defs><style>.cls-1,.cls-2{fill:none;stroke:#4d4d4d;stroke-miterlimit:10;}.cls-2{stroke-linecap:round;}.cls-3{fill:#4d4d4d;}</style></defs><line class="cls-1" x1="1.95" y1="9.75" x2="32.4" y2="9.75"/><path class="cls-2" d="M24.79,2.13V7.21M9.56,2.13V7.21"/><rect class="cls-1" x="1.95" y="5.31" width="30.45" height="24.74" rx="1.27"/><path class="cls-3" d="M18.57,24.65a.95.95,0,1,1-.95-.95,1,1,0,0,1,.95.95"/><path class="cls-3" d="M13.37,24.65a1,1,0,1,1-.95-.95,1,1,0,0,1,.95.95"/><path class="cls-3" d="M7.66,24.65a1,1,0,1,1-1-.95,1,1,0,0,1,1,.95"/><circle class="cls-1" cx="17.68" cy="19.58" r="1.59"/><circle class="cls-1" cx="12.35" cy="19.58" r="1.59"/><circle class="cls-1" cx="6.9" cy="19.58" r="1.59"/><path class="cls-3" d="M24,19.58a.95.95,0,1,1-.95-.95.95.95,0,0,1,.95.95"/><path class="cls-3" d="M29.1,19.58a.95.95,0,1,1-1.9,0,.95.95,0,1,1,1.9,0"/><circle class="cls-1" cx="12.42" cy="13.87" r="1.59"/><circle class="cls-1" cx="17.62" cy="13.87" r="1.59"/><ellipse class="cls-1" cx="22.88" cy="13.87" rx="1.36" ry="1.59"/><ellipse class="cls-1" cx="28.18" cy="13.87" rx="1.36" ry="1.59"/></svg>