<svg id="Layer_1" data-name="Layer 1" xmlns="http://www.w3.org/2000/svg" viewBox="0 0 35 35"><defs><style>.cls-1{fill:#4d4d4d;}.cls-2,.cls-3{fill:none;stroke:#4d4d4d;stroke-miterlimit:10;}.cls-3{stroke-linecap:round;}</style></defs><path class="cls-1" d="M32.49,10.43v20.3A1.27,1.27,0,0,1,31.22,32H5.85a1.27,1.27,0,0,1-1.27-1.27V29.46h24.1A1.27,1.27,0,0,0,30,28.19v-19h1.27A1.27,1.27,0,0,1,32.49,10.43Z"/><path class="cls-2" d="M32.49,19.63v-9.2a1.27,1.27,0,0,0-1.27-1.27H30"/><path class="cls-2" d="M19.38,32H31.22a1.27,1.27,0,0,0,1.27-1.27V19.63"/><path class="cls-2" d="M4.58,29.46v1.27A1.27,1.27,0,0,0,5.85,32H19.38"/><path class="cls-2" d="M19.38,29.46H3.31A1.27,1.27,0,0,1,2,28.19V7.89A1.27,1.27,0,0,1,3.31,6.62H28.68A1.27,1.27,0,0,1,30,7.89V19.63"/><path class="cls-2" d="M30,19.63v8.56a1.27,1.27,0,0,1-1.27,1.27h-9.3"/><line class="cls-2" x1="2.04" y1="10.43" x2="29.95" y2="10.43"/><path class="cls-3" d="M23.61,3.35V8.42M8.38,3.35V8.42"/><path class="cls-1" d="M17.6,25.71a1,1,0,1,1-1-.95,1,1,0,0,1,1,.95"/><path class="cls-1" d="M12.39,25.71a.95.95,0,1,1-1-.95.95.95,0,0,1,1,.95"/><path class="cls-1" d="M6.69,25.71a1,1,0,1,1-1-.95,1,1,0,0,1,1,.95"/><circle class="cls-2" cx="16.71" cy="20.63" r="1.59"/><circle class="cls-2" cx="11.38" cy="20.63" r="1.59"/><circle class="cls-2" cx="5.92" cy="20.63" r="1.59"/><path class="cls-1" d="M23.05,20.63a.95.95,0,1,1-.95-.95.94.94,0,0,1,.95.95"/><path class="cls-1" d="M28.13,20.63a1,1,0,1,1-1-.95,1,1,0,0,1,1,.95"/><circle class="cls-2" cx="11.44" cy="14.92" r="1.59"/><circle class="cls-2" cx="16.64" cy="14.92" r="1.59"/><ellipse class="cls-2" cx="21.91" cy="14.92" rx="1.36" ry="1.59"/><ellipse class="cls-2" cx="27.2" cy="14.92" rx="1.36" ry="1.59"/></svg>