<svg id="Layer_1" data-name="Layer 1" xmlns="http://www.w3.org/2000/svg" viewBox="0 0 35 35"><defs><style>.cls-1,.cls-2,.cls-4{fill:none;stroke:#4d4d4d;}.cls-1,.cls-2{stroke-miterlimit:10;}.cls-2,.cls-4{stroke-linecap:round;}.cls-3{fill:#4d4d4d;}.cls-4{stroke-linejoin:round;}</style></defs><line class="cls-1" x1="2.43" y1="8.61" x2="31.14" y2="8.61"/><path class="cls-2" d="M24,1.43V6.22M9.61,1.43V6.22"/><path class="cls-3" d="M18.1,22.66a.9.9,0,1,1-.9-.89.9.9,0,0,1,.9.89"/><path class="cls-3" d="M13.2,22.66a.9.9,0,1,1-.9-.89.9.9,0,0,1,.9.89"/><path class="cls-3" d="M7.81,22.66a.9.9,0,1,1-.89-.89.89.89,0,0,1,.89.89"/><circle class="cls-1" cx="17.26" cy="17.88" r="1.5"/><circle class="cls-1" cx="12.24" cy="17.88" r="1.5"/><circle class="cls-1" cx="7.1" cy="17.88" r="1.5"/><path class="cls-3" d="M23.24,17.88a.9.9,0,1,1-.89-.9.89.89,0,0,1,.89.9"/><path class="cls-3" d="M28,17.88a.9.9,0,1,1-.9-.9.9.9,0,0,1,.9.9"/><circle class="cls-1" cx="12.3" cy="12.5" r="1.5"/><circle class="cls-1" cx="17.2" cy="12.5" r="1.5"/><ellipse class="cls-1" cx="22.17" cy="12.5" rx="1.28" ry="1.5"/><ellipse class="cls-1" cx="27.16" cy="12.5" rx="1.28" ry="1.5"/><path class="cls-1" d="M18.78,28.05H3.43a1.2,1.2,0,0,1-1.2-1.2V5.92a1.2,1.2,0,0,1,1.2-1.2H29.75a1.19,1.19,0,0,1,1.19,1.2V17.28"/><path class="cls-4" d="M22.32,31.92V29.28H25m7.39-2.65a5.28,5.28,0,0,1-9.85,2.65m-.19,2.64V29.28H25m6.87-7.93V24H29.19M21.8,26.63A5.28,5.28,0,0,1,31.65,24m.19-2.64V24H29.19"/></svg>