<svg id="Layer_1" data-name="Layer 1" xmlns="http://www.w3.org/2000/svg" viewBox="0 0 35 35"><defs><style>.cls-1,.cls-2,.cls-3{fill:none;stroke:#4d4d4d;}.cls-1,.cls-3{stroke-linecap:round;}.cls-1{stroke-linejoin:round;}.cls-2,.cls-3{stroke-miterlimit:10;}.cls-4{fill:#4d4d4d;}</style></defs><path class="cls-1" d="M22.81,32.92V30.28h2.64m7.4-2.65A5.28,5.28,0,0,1,23,30.28m-.18,2.64V30.28h2.64m6.87-7.93V25H29.68m-7.4,2.64A5.28,5.28,0,0,1,32.14,25m.18-2.64V25H29.68"/><line class="cls-2" x1="3.5" y1="9.01" x2="32.21" y2="9.01"/><path class="cls-3" d="M25,1.83V6.62M10.68,1.83V6.62"/><path class="cls-2" d="M19.45,28.15H4.7A1.2,1.2,0,0,1,3.5,27V6a1.2,1.2,0,0,1,1.2-1.2H31A1.2,1.2,0,0,1,32.21,6V18"/><path class="cls-4" d="M19.05,13.5a.9.9,0,1,1-.9-.9.89.89,0,0,1,.9.9"/><path class="cls-4" d="M14.86,13.5a.9.9,0,1,1-.89-.9.89.89,0,0,1,.89.9"/><path class="cls-4" d="M23.24,13.5a.9.9,0,1,1-.9-.9.89.89,0,0,1,.9.9"/><path class="cls-4" d="M19.05,18.28a.9.9,0,1,1-.9-.9.9.9,0,0,1,.9.9"/><path class="cls-4" d="M14.86,18.28a.9.9,0,1,1-.89-.9.89.89,0,0,1,.89.9"/><path class="cls-4" d="M10.68,18.28a.9.9,0,1,1-.9-.9.9.9,0,0,1,.9.9"/><path class="cls-4" d="M23.24,18.28a.9.9,0,1,1-.9-.9.9.9,0,0,1,.9.9"/><path class="cls-4" d="M27.42,13.5a.9.9,0,1,1-.89-.9.89.89,0,0,1,.89.9"/><path class="cls-4" d="M19.05,23.07a.9.9,0,1,1-.9-.9.89.89,0,0,1,.9.9"/><path class="cls-4" d="M14.86,23.07a.9.9,0,1,1-.89-.9.89.89,0,0,1,.89.9"/><path class="cls-4" d="M10.68,23.07a.9.9,0,1,1-.9-.9.89.89,0,0,1,.9.9"/><path class="cls-4" d="M27.42,18.28a.9.9,0,1,1-.89-.9.89.89,0,0,1,.89.9"/></svg>